<svg width="85" height="44" viewBox="0 0 85 44" fill="none" xmlns="http://www.w3.org/2000/svg">
<path d="M28.0329 4.80564L27.5807 3.04874H25.0875L24.5061 0.607167C24.5061 0.607167 24.5061 0.607167 24.5061 0.594248L24.364 0.0129211H23.7569H21.2249H16.2513L11.9237 0L6.75631 1.97119e-06H4.7152H4.06928L3.83675 1.16266L3.39753 3.03582H0.994714L0.620082 4.27599L0 6.27833H0.762185L5.46447 44H23.0334L27.7486 6.29125H28.5108L28.0329 4.80564ZM22.4521 43.3541H6.04579L1.42102 6.29125H27.1027L22.4521 43.3541Z" fill="black"/>
<path d="M1.73096 16.238L3.92708 33.4323H24.7515L26.8701 16.238H1.73096ZM14.3005 30.5257C11.1614 30.5257 8.61644 27.9808 8.61644 24.8416C8.61644 21.7024 11.1614 19.1575 14.3005 19.1575C17.4397 19.1575 19.9846 21.7024 19.9846 24.8416C19.9846 27.9808 17.4397 30.5257 14.3005 30.5257Z" fill="#EBC136"/>
<path d="M31.934 7.65991C31.934 6.39486 32.3616 5.41444 33.217 4.71866C34.088 4.00707 35.3944 3.65127 37.1363 3.65127C38.2871 3.65127 39.267 3.76197 40.0757 3.98335V7.25667C39.2047 6.98785 38.3416 6.85344 37.4862 6.85344C36.6464 6.85344 36.102 6.95622 35.8532 7.1618C35.6043 7.35155 35.4799 7.63619 35.4799 8.01571V15.9855C35.4799 16.7446 36.0631 17.1241 37.2296 17.1241C38.4116 17.1241 39.3836 17.0055 40.1457 16.7683V19.9705C39.3058 20.2077 38.2871 20.3263 37.0896 20.3263C35.3477 20.3263 34.0491 19.9784 33.1937 19.2826C32.3539 18.5868 31.934 17.6064 31.934 16.3413V7.65991Z" fill="#403937"/>
<path d="M46.9602 9.91329C46.9602 9.31239 46.6336 9.01193 45.9804 9.01193C45.3272 9.01193 45.0006 9.31239 45.0006 9.91329V16.5074C45.0006 17.1083 45.3272 17.4087 45.9804 17.4087C46.6336 17.4087 46.9602 17.1083 46.9602 16.5074V9.91329ZM41.5479 9.79469C41.5479 8.59289 41.9134 7.65991 42.6444 6.99576C43.3909 6.31579 44.5029 5.97581 45.9804 5.97581C47.4579 5.97581 48.5621 6.31579 49.2931 6.99576C50.0396 7.65991 50.4129 8.59289 50.4129 9.79469V16.626C50.4129 17.8278 50.0396 18.7687 49.2931 19.4486C48.5621 20.1128 47.4579 20.4449 45.9804 20.4449C44.5029 20.4449 43.3909 20.1128 42.6444 19.4486C41.9134 18.7687 41.5479 17.8278 41.5479 16.626V9.79469Z" fill="#403937"/>
<path d="M52.6803 6.04697C52.6803 3.37454 54.0645 2.03833 56.8328 2.03833C57.1905 2.03833 57.6182 2.07786 58.1159 2.15693V4.90842C57.8671 4.87679 57.6338 4.86098 57.416 4.86098C56.6229 4.86098 56.2263 5.2405 56.2263 5.99953V6.21301H58.1159V9.01193H56.2263V20.2077H52.6803V9.01193H51.3506V6.21301H52.6803V6.04697Z" fill="#403937"/>
<path d="M59.5605 6.04697C59.5605 3.37454 60.9446 2.03833 63.713 2.03833C64.0707 2.03833 64.4984 2.07786 64.996 2.15693V4.90842C64.7472 4.87679 64.5139 4.86098 64.2962 4.86098C63.503 4.86098 63.1064 5.2405 63.1064 5.99953V6.21301H64.996V9.01193H63.1064V20.2077H59.5605V9.01193H58.2307V6.21301H59.5605V6.04697Z" fill="#403937"/>
<path d="M65.8107 16.2227V9.79469C65.8107 8.59289 66.1762 7.65991 66.9072 6.99576C67.6382 6.31579 68.7424 5.97581 70.2199 5.97581C73.066 5.97581 74.489 7.24877 74.489 9.79469V14.6098H69.1934V15.9381C69.1934 16.4125 69.3178 16.7525 69.5667 16.958C69.8311 17.1478 70.3987 17.2427 71.2697 17.2427C72.1561 17.2427 73.1204 17.0846 74.1624 16.7683V19.8993C73.0738 20.1997 71.9073 20.35 70.6631 20.35C67.4282 20.35 65.8107 18.9742 65.8107 16.2227ZM69.1934 11.882H71.2463V9.84213C71.2463 9.24123 70.9042 8.94078 70.2199 8.94078C69.5356 8.94078 69.1934 9.24123 69.1934 9.84213V11.882Z" fill="#403937"/>
<path d="M75.8804 16.2227V9.79469C75.8804 8.59289 76.2458 7.65991 76.9768 6.99576C77.7078 6.31579 78.812 5.97581 80.2895 5.97581C83.1356 5.97581 84.5586 7.24877 84.5586 9.79469V14.6098H79.263V15.9381C79.263 16.4125 79.3874 16.7525 79.6363 16.958C79.9007 17.1478 80.4683 17.2427 81.3393 17.2427C82.2258 17.2427 83.19 17.0846 84.232 16.7683V19.8993C83.1434 20.1997 81.9769 20.35 80.7327 20.35C77.4978 20.35 75.8804 18.9742 75.8804 16.2227ZM79.263 11.882H81.316V9.84213C81.316 9.24123 80.9738 8.94078 80.2895 8.94078C79.6052 8.94078 79.263 9.24123 79.263 9.84213V11.882Z" fill="#403937"/>
<path d="M37.549 28.9414C37.549 27.7736 36.9429 27.1898 35.7306 27.1898H33.7973V37.8357H35.7306C36.9429 37.8357 37.549 37.2388 37.549 36.0451V28.9414ZM32.4382 25.9831H35.8071C36.828 25.9831 37.6 26.2491 38.1233 26.7811C38.6465 27.313 38.9081 28.0267 38.9081 28.9219V36.0841C38.9081 37.0053 38.6528 37.7319 38.1424 38.2639C37.632 38.7958 36.8663 39.0618 35.8454 39.0618H32.4382V25.9831Z" fill="#403937"/>
<path d="M41.1446 36.2398V30.8292C41.1446 29.908 41.3998 29.1749 41.9103 28.63C42.4335 28.0721 43.2183 27.7931 44.2647 27.7931C45.3111 27.7931 46.0831 28.0721 46.5808 28.63C47.0912 29.1749 47.3465 29.908 47.3465 30.8292V34.2157H42.4845V36.1814C42.4845 36.7653 42.6632 37.1999 43.0205 37.4854C43.3778 37.7708 43.9329 37.9135 44.6858 37.9135C45.4387 37.9135 46.2171 37.7968 47.0211 37.5632V38.8477C46.383 39.0553 45.6237 39.1591 44.7432 39.1591C42.3442 39.1591 41.1446 38.186 41.1446 36.2398ZM42.4845 33.0674H46.0449V30.8292C46.0449 29.6096 45.4515 28.9998 44.2647 28.9998C43.0779 28.9998 42.4845 29.6096 42.4845 30.8292V33.0674Z" fill="#403937"/>
<path d="M49.6731 25.0489H51.0321V39.0618H49.6731V25.0489Z" fill="#403937"/>
<path d="M54.3433 26.7421C53.7946 26.7421 53.5202 26.4437 53.5202 25.8469C53.5202 25.25 53.7946 24.9516 54.3433 24.9516C54.9048 24.9516 55.1855 25.25 55.1855 25.8469C55.1855 26.4437 54.9048 26.7421 54.3433 26.7421ZM53.6733 28.0656H55.0324V39.0618H53.6733V28.0656Z" fill="#403937"/>
<path d="M62.0379 27.9877H63.4161L61.0042 39.0618H59.0901L56.6783 27.9877H58.0756L59.1284 33.0674L60.0663 38.0887C60.4491 35.9349 61.1063 32.5679 62.0379 27.9877Z" fill="#403937"/>
<path d="M64.8659 36.2398V30.8292C64.8659 29.908 65.1211 29.1749 65.6316 28.63C66.1548 28.0721 66.9396 27.7931 67.986 27.7931C69.0324 27.7931 69.8044 28.0721 70.3021 28.63C70.8125 29.1749 71.0678 29.908 71.0678 30.8292V34.2157H66.2058V36.1814C66.2058 36.7653 66.3845 37.1999 66.7418 37.4854C67.0991 37.7708 67.6542 37.9135 68.4071 37.9135C69.16 37.9135 69.9384 37.7968 70.7423 37.5632V38.8477C70.1043 39.0553 69.345 39.1591 68.4645 39.1591C66.0654 39.1591 64.8659 38.186 64.8659 36.2398ZM66.2058 33.0674H69.7661V30.8292C69.7661 29.6096 69.1727 28.9998 67.986 28.9998C66.7992 28.9998 66.2058 29.6096 66.2058 30.8292V33.0674Z" fill="#403937"/>
<path d="M76.9164 27.9293H77.3949V29.2528H76.7441C76.2847 29.2528 75.87 29.376 75.4999 29.6226C75.3851 29.7004 75.1362 29.8756 74.7534 30.1481V39.0618H73.3943V27.9877H74.696V28.8246C74.7343 28.7987 74.83 28.7273 74.9831 28.6105C75.149 28.4938 75.2447 28.4289 75.2702 28.4159C75.3085 28.39 75.3914 28.3381 75.5191 28.2602C75.6594 28.1824 75.7615 28.1369 75.8253 28.124C75.9019 28.098 76.004 28.0656 76.1316 28.0267C76.323 27.9618 76.5846 27.9293 76.9164 27.9293Z" fill="#403937"/>
<path d="M83.2178 27.9877H84.5769L81.5908 41.9617H80.2892L80.8826 39.0618H80.2126L77.8391 27.9877H79.2173L80.3657 33.4956L81.208 38.0887C81.4632 36.5577 81.7439 35.0266 82.0502 33.4956L83.2178 27.9877Z" fill="#403937"/>
</svg>
